<?xml version="1.0" encoding="UTF-8"?>
<svg id="Layer_2" data-name="Layer 2" xmlns="http://www.w3.org/2000/svg" viewBox="0 0 500 500">
  <defs>
    <style>
      .cls-1 {
        fill: lime;
      }
    </style>
  </defs>
  <path class="cls-1" d="M250,477.94c-102.69,0-186.24-83.55-186.24-186.24S147.31,105.46,250,105.46s186.24,83.55,186.24,186.24-83.55,186.24-186.24,186.24ZM250,150.2c-78.02,0-141.5,63.48-141.5,141.5s63.48,141.5,141.5,141.5,141.5-63.48,141.5-141.5-63.48-141.5-141.5-141.5Z"/>
  <rect class="cls-1" x="380.78" y="84.05" width="25.17" height="50.35" transform="translate(37.98 310.14) rotate(-45)"/>
  <rect class="cls-1" x="81.46" y="96.63" width="50.35" height="25.17" transform="translate(-46 107.39) rotate(-45)"/>
  <path class="cls-1" d="M305.27,363.94h-110.31l-34.09-104.91,89.24-64.84,89.24,64.84-34.09,104.91ZM209.41,344.06h81.42l25.15-77.43-65.86-47.85-65.87,47.85,25.16,77.43Z"/>
  <rect class="cls-1" x="240.18" y="127.83" width="19.88" height="78.66"/>
  <rect class="cls-1" x="318.34" y="341.48" width="19.88" height="85.49" transform="translate(-175.54 344.69) rotate(-45)"/>
  <rect class="cls-1" x="129.22" y="374.29" width="85.49" height="19.88" transform="translate(-221.32 234.13) rotate(-45)"/>
  <rect class="cls-1" x="319.2" y="240.21" width="87.31" height="19.88" transform="translate(-63.3 137.75) rotate(-19.81)"/>
  <rect class="cls-1" x="124.57" y="210.22" width="19.88" height="84.1" transform="translate(-151.02 266.69) rotate(-64.83)"/>
  <rect class="cls-1" x="192.23" y="26.56" width="115.77" height="50.35" rx="25.17" ry="25.17"/>
</svg>